<svg width="42" height="42" fill="none" xmlns="http://www.w3.org/2000/svg"><rect width="42" height="42" rx="4" fill="#00A79D"/><path fill-rule="evenodd" clip-rule="evenodd" d="M42 6.73C42 4.724 40.506 3 38.5 3 23.312 3 11 15.312 11 30.5c0 3.2.546 6.272 1.551 9.128C13.07 41.1 14.512 42 16.073 42H38a4 4 0 004-4V6.73z" fill="#07DFD2" fill-opacity=".35"/><path d="M21.982 28H20.4V17.824c0-.846.026-1.647.079-2.402-.137.137-.29.28-.46.43-.169.15-.943.784-2.324 1.904l-.86-1.113 3.78-2.92h1.367V28z" fill="#fff"/></svg>