<svg width="42" height="42" fill="none" xmlns="http://www.w3.org/2000/svg"><rect width="42" height="42" rx="4" fill="#00A79D"/><path fill-rule="evenodd" clip-rule="evenodd" d="M42 6.73C42 4.724 40.506 3 38.5 3 23.312 3 11 15.312 11 30.5c0 3.2.546 6.272 1.551 9.128C13.07 41.1 14.512 42 16.073 42H38a4 4 0 004-4V6.73z" fill="#07DFD2" fill-opacity=".35"/><path d="M26.035 24.719h-2.119V28h-1.553v-3.281H15.42v-1.416l6.777-9.659h1.719v9.6h2.12v1.475zm-3.672-1.475v-4.746c0-.93.033-1.982.098-3.154h-.078a14.685 14.685 0 01-.88 1.553l-4.462 6.347h5.322z" fill="#fff"/></svg>