<svg width="42" height="42" fill="none" xmlns="http://www.w3.org/2000/svg"><rect width="42" height="42" rx="4" fill="#00A79D"/><path fill-rule="evenodd" clip-rule="evenodd" d="M42 6.73C42 4.724 40.506 3 38.5 3 23.312 3 11 15.312 11 30.5c0 3.2.546 6.272 1.551 9.128C13.07 41.1 14.512 42 16.073 42H38a4 4 0 004-4V6.73z" fill="#07DFD2" fill-opacity=".35"/><path d="M24.824 17.082c0 .912-.257 1.657-.771 2.236-.508.58-1.23.967-2.168 1.162v.079c1.146.143 1.995.507 2.549 1.093.553.586.83 1.354.83 2.305 0 1.36-.472 2.409-1.416 3.145-.944.729-2.285 1.093-4.024 1.093a11.45 11.45 0 01-2.08-.175 6.968 6.968 0 01-1.826-.596V25.88a9.108 9.108 0 003.965.937c2.467 0 3.701-.966 3.701-2.9 0-1.732-1.36-2.598-4.082-2.598h-1.406v-1.396h1.425c1.114 0 1.996-.244 2.647-.733.651-.494.977-1.178.977-2.05 0-.697-.241-1.244-.723-1.641-.475-.397-1.123-.596-1.944-.596a6.01 6.01 0 00-1.767.254c-.553.17-1.185.482-1.895.938l-.82-1.094a6.766 6.766 0 012.022-1.084 7.324 7.324 0 012.421-.4c1.387 0 2.465.319 3.233.957.768.631 1.152 1.5 1.152 2.607z" fill="#fff"/></svg>