<svg width="42" height="42" fill="none" xmlns="http://www.w3.org/2000/svg"><rect width="42" height="42" rx="4" fill="#00A79D"/><path fill-rule="evenodd" clip-rule="evenodd" d="M42 6.73C42 4.724 40.506 3 38.5 3 23.312 3 11 15.312 11 30.5c0 3.2.546 6.272 1.551 9.128C13.07 41.1 14.512 42 16.073 42H38a4 4 0 004-4V6.73z" fill="#07DFD2" fill-opacity=".35"/><path d="M25.361 28h-9.384v-1.396l3.76-3.78c1.145-1.159 1.9-1.986 2.265-2.48.364-.495.638-.977.82-1.446a4.14 4.14 0 00.274-1.513c0-.762-.231-1.364-.694-1.807-.462-.45-1.103-.674-1.924-.674-.592 0-1.155.098-1.689.293-.527.196-1.117.55-1.768 1.065l-.859-1.104c1.315-1.093 2.748-1.64 4.297-1.64 1.341 0 2.393.345 3.154 1.035.762.683 1.143 1.605 1.143 2.763 0 .905-.254 1.8-.762 2.686-.508.885-1.458 2.005-2.851 3.36l-3.125 3.056v.078h7.343V28z" fill="#fff"/></svg>