<svg width="634" height="381" fill="none" xmlns="http://www.w3.org/2000/svg"><path d="M43.829 357.504l37.392-53.677-37.411 59.516-.022 6.107a160.117 160.117 0 01-7.919-.26c-.012-1.386 3.166-77.684 3.031-79.064.185-.052.288-7.216.361-7.53L.198 223.939l39.105 53.106.117 1.57 2.32-59.278-33.58-60.703 33.846 50.287c.012-.806 1.601-122.518 1.617-123.269.01.4.74 96.858.745 97.265l32.114-38.826-32.145 47.169-.165 53.053 29.803-51.303c-37.193 74.818-28.962 48.636-29.912 88.603l43.29-71.436-43.327 81.728-.197 65.599zm572.034 7.288l15.582-22.368-15.59 24.801-.009 2.545a66.374 66.374 0 01-3.3-.108c-.005-.578 1.319-32.373 1.263-32.948.077-.022.12-3.007.15-3.138l-16.278-24.443 16.296 22.13.048.654.967-24.703-13.993-25.296 14.104 20.956c.005-.336.667-51.056.674-51.369.004.166.308 40.363.31 40.532l13.383-16.179-13.396 19.656-.068 22.109 12.419-21.379c-15.499 31.178-12.069 20.267-12.465 36.923l18.04-29.77-18.055 34.058-.082 27.337z" fill="#D0CDE1"/><path d="M315.964 381c174.502 0 315.963-5.537 315.963-12.368s-141.461-12.368-315.963-12.368S0 361.801 0 368.632 141.462 381 315.964 381z" fill="#D0CDE1"/><path d="M469.23 146.081H108.465v214.895H469.23V146.081z" fill="#3F3D56"/><path d="M197.748 146.081a86.159 86.159 0 01-25.753 60.038 86.312 86.312 0 01-63.53 24.702v-84.74h89.283zm108.747 214.895h-34.312a18.266 18.266 0 016.696-8.675 18.289 18.289 0 0120.92 0 18.266 18.266 0 016.696 8.675zM469.23 249.821v72.384a36.283 36.283 0 01-24.493-11.203 36.219 36.219 0 01-10.004-24.989 36.219 36.219 0 0110.004-24.989 36.288 36.288 0 0124.493-11.203z" fill="#00A79D"/><path d="M402.954 224.168H175.366c-5.87 0-10.629 4.755-10.629 10.62 0 5.865 4.759 10.619 10.629 10.619h227.588c5.87 0 10.629-4.754 10.629-10.619s-4.759-10.62-10.629-10.62z" fill="url(#paint0_linear)"/><path d="M402.954 266.022H175.366c-5.87 0-10.629 4.755-10.629 10.62 0 5.865 4.759 10.62 10.629 10.62h227.588c5.87 0 10.629-4.755 10.629-10.62 0-5.865-4.759-10.62-10.629-10.62z" fill="url(#paint1_linear)"/><path d="M402.954 307.877h-65.988c-5.87 0-10.629 4.755-10.629 10.62 0 5.865 4.759 10.619 10.629 10.619h65.988c5.87 0 10.629-4.754 10.629-10.619s-4.759-10.62-10.629-10.62z" fill="url(#paint2_linear)"/><path d="M526.44 66.034s9.921 3.854 10.472 16.52c.551 12.664-2.756 47.905-2.756 47.905s12.125 17.62 2.756 22.576c-9.369 4.956-10.472-19.823-10.472-19.823l-11.022-52.31s6.613-15.419 11.022-14.868zm-101.407 40.748s-23.698 15.418-24.801 3.304c-1.102-12.114 7.165-59.47 7.165-59.47s1.102-20.373 12.676-15.417c11.574 4.956-3.307 22.025-3.307 22.025l1.654 38.545 11.022-.55-4.409 11.563z" fill="#F7C4A7"/><path d="M463.061 121.098s-72.749-26.981-68.891 4.405c3.858 31.387 22.596 71.033 22.596 71.033l6.613 10.462h13.779l-8.818-56.716s31.414 17.621 40.783 14.867c0 0 12.125 80.945 16.534 87.002 4.409 6.057 12.125 79.292 12.125 79.292l7.164 8.81h13.778V216.359s23.699-77.09 5.512-80.944c-18.188-3.855-61.175-14.317-61.175-14.317z" fill="#D0CDE1"/><path d="M421.726 199.839s-3.307-6.057-8.818 0c-5.511 6.058-18.738 13.216-18.738 13.216s-28.659 6.608-5.512 12.114c23.148 5.506 25.903 0 25.903 0s3.858 1.101 7.165 2.202c3.307 1.102 24.801-2.753 24.801-6.057 0-3.303-7.297-23.048-10.262-20.059-2.965 2.99-14.539-1.416-14.539-1.416zm84.276 134.964s-8.126-6.686-10.038-4.776c-1.912 1.91-11.95 14.805-11.95 14.805s-26.768 20.536-2.39 23.879 22.944-5.731 22.944-5.731h7.648c.956 0 13.863-5.731 13.385-8.119-.478-2.388-6.214-21.86-8.126-20.481-1.912 1.378-11.473.423-11.473.423z" fill="#2F2E41"/><path d="M432.198 45.11c10.348 0 18.738-8.382 18.738-18.721 0-10.34-8.39-18.722-18.738-18.722-10.349 0-18.739 8.382-18.739 18.722 0 10.34 8.39 18.722 18.739 18.722z" fill="#F7C4A7"/><path d="M445.424 24.186s14.33 12.114 24.25 12.114-14.329 22.576-14.329 22.576l-21.494-19.273 11.573-15.418z" fill="#F7C4A7"/><path d="M450.936 58.876l-.429-4.338s10.9-19.34 14.207-20.992c3.307-1.652 5.511-1.652 5.511-1.652s11.023-11.563 23.148-5.506c12.124 6.057 40.783 44.602 40.783 44.602s-20.392 1.652-17.636 17.62c0 0 20.391 52.311 14.88 52.862-5.511.55-22.045-3.304-39.13 4.405s-24.8 2.753-24.8 2.753l-8.818-28.633s-16.534-9.361-15.983-17.621l-23.974 10.738 2.204-20.374 14.605-16.794s-2.755-2.203 15.432-17.07zm-35.975-30.464a6.921 6.921 0 01-2.721 1.852c-1.067.3-2.412-.068-2.837-1.091l.792-1.03-2.375-1.475 1.035-1.214-1.914-2.075 1.51-1.197-2.875-2.055c3.727-6.075 7.756-12.226 13.639-16.253 5.883-4.027 14.104-5.458 20.13-1.649 3.129 1.978 5.342 5.117 7.114 8.364 3.564 6.532 6.706 12.9 7.17 20.324-2.239-2.178-5.508-3.406-7.747-5.584a16.738 16.738 0 00-3.342-2.733c-2.341-1.32-5.143-1.436-7.765-2.032-2.205-.5-3.635-1.493-5.303-2.912-1.984-1.689-2.065-1.036-4.068.865-3.479 3.3-6.96 6.6-10.443 9.895z" fill="#201F2C"/><defs><linearGradient id="paint0_linear" x1="289.16" y1="224.168" x2="289.16" y2="245.407" gradientUnits="userSpaceOnUse"><stop stop-color="#0B8A83"/><stop offset="1" stop-color="#00DDD0"/></linearGradient><linearGradient id="paint1_linear" x1="289.16" y1="266.022" x2="289.16" y2="287.262" gradientUnits="userSpaceOnUse"><stop stop-color="#0B8A83"/><stop offset="1" stop-color="#00DDD0"/></linearGradient><linearGradient id="paint2_linear" x1="369.96" y1="307.877" x2="369.96" y2="329.116" gradientUnits="userSpaceOnUse"><stop stop-color="#0B8A83"/><stop offset="1" stop-color="#00DDD0"/></linearGradient></defs></svg>