<svg width="24" height="22" fill="none" xmlns="http://www.w3.org/2000/svg"><path d="M22 1.333H2a2 2 0 00-2 2V18a2 2 0 002 2h20a2 2 0 002-2V3.333a2 2 0 00-2-2zm-14.667 4A2.67 2.67 0 0110 8a2.67 2.67 0 01-2.667 2.666A2.67 2.67 0 014.667 8a2.67 2.67 0 012.666-2.667zM12 15.2c0 .441-.417.8-.933.8H3.6c-.517 0-.933-.359-.933-.8v-.8c0-1.325 1.254-2.4 2.8-2.4h.208a4.3 4.3 0 003.317 0H9.2c1.546 0 2.8 1.075 2.8 2.4v.8zm9.333-2.2c0 .183-.15.333-.333.333h-6a.334.334 0 01-.333-.333v-.667c0-.183.15-.333.333-.333h6c.183 0 .333.15.333.333V13zm0-2.667c0 .183-.15.333-.333.333h-6a.334.334 0 01-.333-.333v-.667c0-.183.15-.333.333-.333h6c.183 0 .333.15.333.333v.667zm0-2.667c0 .184-.15.334-.333.334h-6a.334.334 0 01-.333-.334V7c0-.184.15-.334.333-.334h6c.183 0 .333.15.333.334v.666z" fill="#00A79D"/></svg>