<svg width="34" height="40" fill="none" xmlns="http://www.w3.org/2000/svg"><path d="M27.718 4.907l.38-1.14a1.129 1.129 0 00-1.072-1.486h-.136c-.44 0-.849.22-1.092.585l-1.57 2.354c.79-.197 1.61-.307 2.448-.312l1.043-.001zM6.885 35.365L5.65 36.598a1.584 1.584 0 000 2.24l.385.385a1.584 1.584 0 002.24 0l1.7-1.702A8.202 8.202 0 017.7 36.183c-.3-.25-.566-.527-.816-.818zm20.667-18.699c.804.93 1.464 1.985 1.942 3.134l.049.126 1.43-1.43a1.585 1.585 0 000-2.241l-.384-.385a1.584 1.584 0 00-2.24 0l-.797.796zm5.198 5.303h-2.47c.272.864.498 1.74.674 2.625h1.795a.657.657 0 00.656-.657v-1.312a.656.656 0 00-.656-.656zm-18.313-8.531c-5.1 0-9.25 4.148-9.25 9.248 0 1.176.235 2.32.698 3.403l.59 1.375c.5-.553 1.128-1 1.857-1.291a4.51 4.51 0 011.332-.31l4.08-.314c1.826-.14 3.256-1.69 3.256-3.526v-.075c0-1.248-.124-2.503-.37-3.73l-.016-.085a13.955 13.955 0 01-.27-2.727c0-.665.067-1.321.19-1.969h-2.097zm-5.968 8.53a1.312 1.312 0 110-2.624 1.312 1.312 0 010 2.625zm2.625-5.25a1.312 1.312 0 112.624 0 1.312 1.312 0 01-2.624 0zm2.625 6.563a1.312 1.312 0 11-.001-2.624 1.312 1.312 0 010 2.624zm-.674-17.253c.441.882.674 1.87.674 2.855a6.386 6.386 0 01-.988 3.393 10.547 10.547 0 011.706-.151h2.442c.086-.26.173-.52.28-.775l.032-.079c.13-.31.276-.607.432-.898-.139-2.703-.718-5.917-1.057-7.614-.073-.367-.514-.582-.849-.416l-2.825 1.413a.876.876 0 00-.393 1.182l.546 1.09z" fill="#00A79D"/><path d="M24.892 15.974a6.015 6.015 0 00.608 3.152l.618 1.237-1.174.587-.618-1.237a7.273 7.273 0 01-.764-3.233c0-.801.12-1.536.355-2.242a9.73 9.73 0 013.816-5.026l.757-.505a.723.723 0 00.11-1.117l-.574-.573-2.522 1.261a7.118 7.118 0 00-3.163 3.165 7.114 7.114 0 00-.747 3.163v.144H20.28v-.144c0-1.295.307-2.593.886-3.75a8.442 8.442 0 013.751-3.752l1.767-.883a9.004 9.004 0 00-8.281 5.553l-.032.08a9.178 9.178 0 00-.716 3.552c0 .827.083 1.658.245 2.471l.016.085a20.3 20.3 0 01.395 3.986v.075c0 2.518-1.962 4.642-4.467 4.835l-4.08.314a3.167 3.167 0 00-.945.22 3.673 3.673 0 00-2.32 3.425c0 1.688.744 3.277 2.04 4.358a6.89 6.89 0 003.472 1.533l16.333 2.252.77-2.566a23.9 23.9 0 00.918-4.879l-.06-.03a13.808 13.808 0 01-4.947-4.17c-.077.084-.15.173-.231.254l-.77.769-.927-.928.769-.769a5.639 5.639 0 001.664-4.016h1.313c0 1.281-.35 2.506-.991 3.577a12.48 12.48 0 004.252 3.863c.004-.184.02-.367.02-.55 0-3.178-.62-6.276-1.842-9.21a10.243 10.243 0 00-3.39-4.331zM19.07 31.797a5.691 5.691 0 00-2.104 2.848l-1.244-.415a6.993 6.993 0 012.585-3.501l2.905-2.075.763 1.068-2.905 2.075zm4.492-7.86h-.769a3.798 3.798 0 00-2.704 1.12l-.928-.927a5.1 5.1 0 013.632-1.505h.77v1.313zm.657-22.393V.97a.656.656 0 00-.657-.656H22.25a.657.657 0 00-.656.656 24.27 24.27 0 01-.707 5.753 10.291 10.291 0 013-1.41 21.97 21.97 0 00.332-3.768zM6.634 15.414l.05.125A10.596 10.596 0 0110.3 12.97a6.838 6.838 0 01-3.328-3.182l-.12-.242a1.27 1.27 0 00-2.037-.331l-.475.476a1.585 1.585 0 00-.001 2.24 10.358 10.358 0 012.295 3.482zm-4.588.027a1.169 1.169 0 00-1.452 1.134v.645c0 .498.28.952.726 1.174.98.49 2.041.784 3.127.893a10.542 10.542 0 011.796-3.25 20.821 20.821 0 01-4.197-.596z" fill="#00A79D"/></svg>