<svg width="19" height="20" fill="none" xmlns="http://www.w3.org/2000/svg"><path d="M9.572 6.875A3.13 3.13 0 006.447 10a3.13 3.13 0 003.125 3.124A3.13 3.13 0 0012.696 10a3.13 3.13 0 00-3.124-3.125zM18.942 10c0-1.294.012-2.576-.061-3.868-.073-1.5-.415-2.83-1.512-3.928C16.27 1.105 14.941.765 13.441.692 12.147.62 10.865.632 9.574.632 8.28.632 6.998.62 5.707.692c-1.5.073-2.832.415-3.928 1.512-1.1 1.1-1.44 2.428-1.512 3.928C.194 7.426.206 8.708.206 10c0 1.29-.012 2.575.06 3.867.073 1.5.416 2.831 1.513 3.928 1.099 1.1 2.428 1.439 3.928 1.512 1.293.072 2.575.06 3.867.06 1.294 0 2.576.012 3.867-.06 1.5-.073 2.831-.415 3.928-1.512 1.1-1.1 1.44-2.428 1.512-3.928.075-1.292.06-2.574.06-3.867zm-9.37 4.807A4.8 4.8 0 014.764 10a4.8 4.8 0 014.808-4.808A4.8 4.8 0 0114.379 10a4.8 4.8 0 01-4.807 4.807zm5.003-8.689a1.121 1.121 0 01-1.122-1.122 1.121 1.121 0 111.553 1.038 1.121 1.121 0 01-.43.084z" fill="#2C2C2C"/></svg>