<svg width="24" height="24" fill="none" xmlns="http://www.w3.org/2000/svg"><path d="M13.298 18.511l1.446-1.2c.213-.177.436-.343.668-.497a7.222 7.222 0 013.768-1.254c.66-.02 2.029-.062 4.022 1.142L24 15.39a10.661 10.661 0 00-1.3-.666A11.462 11.462 0 0021.207 5.5a11.522 11.522 0 00-3.396-3.37A11.567 11.567 0 008.547.676a11.557 11.557 0 00-4.27 2.17 11.51 11.51 0 00-3.018 3.71A11.47 11.47 0 00.015 11.17c0 .055-.034 1.272 0 1.523l1.532-.152c-.01-.162 0-1.134.013-1.296a9.949 9.949 0 011.05-4.02 9.983 9.983 0 012.6-3.244 10.025 10.025 0 017.862-2.15c1.389.21 2.717.71 3.9 1.467a9.996 9.996 0 012.961 2.922 9.957 9.957 0 011.31 8.018 7.69 7.69 0 00-2.113-.204 8.654 8.654 0 00-4.09 1.208c-.163-2.43-1.301-4.663-3.03-5.917l-.451-.324-.452.324c-1.741 1.259-2.873 3.499-3.033 5.943-2.439-1.189-6.544-.588-6.729-.56l-.938.143.333.884a11.516 11.516 0 003.637 4.972 11.593 11.593 0 0011.8 1.532 11.547 11.547 0 004.794-3.878l-1.253-.89a10.007 10.007 0 01-3.928 3.255 10.047 10.047 0 01-9.849-.787A9.99 9.99 0 012.584 16.1c1.536-.115 3.92-.097 5.125.706.232.154.455.32.669.498l1.445 1.2-.187-1.865a7.532 7.532 0 01-.04-.78c0-1.964.74-3.799 1.966-4.936 1.223 1.134 1.964 2.972 1.964 4.936 0 .25-.013.513-.04.78l-.188 1.865v.006z" fill="#0B8A83"/></svg>