<svg width="38" height="40" fill="none" xmlns="http://www.w3.org/2000/svg"><path d="M14.614 8.758l-.02-.038a2.194 2.194 0 01-1.5-2.075 2.2 2.2 0 01.313-1.13l.06-.1A6.484 6.484 0 0119 2.28c2.253 0 4.373 1.2 5.532 3.132l.062.103a2.2 2.2 0 01.312 1.13c0 .966-.632 1.78-1.5 2.074l-.02.038a4.882 4.882 0 01-2.417 2.301v6.892c.461-.1.9-.3 1.27-.596a8.167 8.167 0 002.795-4.252l.943-3.46A6.875 6.875 0 0019.351.969h-.702a6.875 6.875 0 00-6.626 8.676l.944 3.459a8.168 8.168 0 002.794 4.252c.371.298.81.495 1.27.596V11.06a4.883 4.883 0 01-2.417-2.301zM8.293 34.65a4.7 4.7 0 01-.6-.483l-.443 4.865h1.819l-.49-3.917a.654.654 0 00-.286-.464zm-5.64 4.381h3.28l.183-2.023-3.06-2.622-.403 4.645zM.268 35.974l1.381-.553.345-3.974-1.409.564-.317 3.963zM4.86 22.465a6.713 6.713 0 013.167-1.39l2.99-.46a4.877 4.877 0 003.558-2.55 9.664 9.664 0 01-.676-.656 4.73 4.73 0 01-3.38 2.338l-3.841.591a6.688 6.688 0 00-3.262 1.471 6.72 6.72 0 00-2.383 4.6l-.331 4.14 1.42-.567.248-2.864a6.73 6.73 0 012.49-4.653zM.023 39.031h1.313l.186-2.145-1.37.548-.129 1.597z" fill="#00A79D"/><path d="M19 10.156a3.564 3.564 0 002.767-1.312h-5.534A3.564 3.564 0 0019 10.156zm-7.783 11.755l-2.06.317v3.678H7.843v-3.45a5.392 5.392 0 00-2.164 1.034 5.414 5.414 0 00-2.003 3.74l-.48 5.547 3.065 2.628.266-2.933a4.688 4.688 0 01-.278-.98l-1.023-6.135 1.295-.215 1.022 6.134c.155.928.693 1.76 1.476 2.283.477.317.791.825.862 1.393l.51 4.079h6.64v-2.625h-3.938v-1.313h3.937v-2.625h-4.05a.653.653 0 00-.464.193l-.928.928-.928-.928.928-.928a1.957 1.957 0 011.393-.577h4.05v-2.625h-3.938v-1.313h3.937v-2.625h-4.05a.653.653 0 00-.464.193l-.928.928-.928-.928.928-.928a1.957 1.957 0 011.393-.577h4.05v-3.993a4.41 4.41 0 01-1.377-.451 6.205 6.205 0 01-4.438 3.074zM23.594 6.645a.883.883 0 00-.126-.454l-.062-.103A5.165 5.165 0 0019 3.594a5.165 5.165 0 00-4.407 2.495l-.06.1a.886.886 0 00.758 1.342h7.418a.886.886 0 00.885-.886zm8.29 30.363l.184 2.023h3.278l-.403-4.645-3.059 2.622zm5.083-10.598a6.722 6.722 0 00-2.383-4.6 6.683 6.683 0 00-3.262-1.471l-3.841-.59a4.728 4.728 0 01-3.38-2.339c-.213.23-.44.446-.676.655a4.88 4.88 0 003.558 2.55l2.99.46a6.713 6.713 0 013.166 1.39 6.73 6.73 0 012.492 4.655l.248 2.863 1.42.567-.332-4.14zm.882 11.024l-1.372-.548.187 2.146h1.312l-.127-1.598zm-.434-5.423l-1.41-.564.345 3.974 1.383.552-.318-3.962z" fill="#00A79D"/><path d="M34.323 27.232a5.414 5.414 0 00-2.004-3.743 5.392 5.392 0 00-2.163-1.032v3.449h-1.312v-3.678l-2.06-.317a6.207 6.207 0 01-4.44-3.074c-.43.224-.894.377-1.375.45v3.994h4.05c.525 0 1.02.205 1.392.577l.928.928-.928.928-.928-.928a.653.653 0 00-.465-.193h-4.05v2.625h3.938v1.313H20.97v2.625h4.05c.525 0 1.02.205 1.392.577l.928.928-.928.928-.928-.928a.653.653 0 00-.465-.193h-4.05v2.625h3.938v1.313H20.97v2.625h6.639l.51-4.08a1.96 1.96 0 01.862-1.393 3.433 3.433 0 001.476-2.282l1.022-6.134 1.295.215-1.023 6.134a4.686 4.686 0 01-.278.98l.266 2.933 3.066-2.628a9503.29 9503.29 0 01-.48-5.544zM18.344 11.423V39.03h1.312V11.423a5.05 5.05 0 01-.656.045 5.05 5.05 0 01-.656-.045z" fill="#00A79D"/><path d="M29.707 34.65a.655.655 0 00-.287.465l-.49 3.916h1.82l-.442-4.864c-.187.175-.385.34-.6.483z" fill="#00A79D"/></svg>