<svg width="42" height="42" fill="none" xmlns="http://www.w3.org/2000/svg"><path d="M25.125 17.645c-.19.782-.437 1.55-.74 2.296a6.287 6.287 0 003.018 3.599l-.053-.48a10.728 10.728 0 00-2.225-5.415zm1.125 19.761h-.226c-.333.72-.613 1.468-.806 2.24l-.096.385h5.932c-.066-.132-.126-.265-.187-.399a5.868 5.868 0 00-4.617-2.226zm5.607-11.812h-1.509a7.58 7.58 0 01-4.754-1.693v2.608c0 1.208.304 2.382.88 3.433a14.262 14.262 0 013.698-1.567 9.305 9.305 0 011.685-2.781zm-2.127 4.279c-1.076.357-2.1.85-3.052 1.478a3.751 3.751 0 00-1.084 2.612c0 .752.153 1.47.429 2.13h.227a7.18 7.18 0 013.733 1.043 14.454 14.454 0 01-.452-3.556v-1.816c0-.643.074-1.275.2-1.891z" fill="#00A79D"/><path d="M39.375 1.969h-7.393a.658.658 0 00-.65.563l-.211 1.482a3.288 3.288 0 01-2.841 2.792l-6.27.784a12.489 12.489 0 00-4.05 1.225 12.593 12.593 0 00-6.71 8.896l-.32 1.712a14.508 14.508 0 017.887-2.36h.243a3.016 3.016 0 002.554-1.43l.14-.226 1.118.686-.139.227a4.339 4.339 0 01-3.673 2.055h-.243a12.99 12.99 0 00-9.311 3.883l-.066.066c-.702.711-1.326 1.5-1.853 2.345l-5.618 8.988v6.078l4.621-1.76a14.573 14.573 0 009.2-11.383l.069-.444.439-.098a8.527 8.527 0 005.366-3.753l.253-.398a15.095 15.095 0 002.364-8.118h1.313c0 .746-.054 1.488-.154 2.22a12.045 12.045 0 013.214 6.914l.13 1.164a6.2 6.2 0 001.564.202h4.877a5.091 5.091 0 004.806-3.408V2.625a.657.657 0 00-.656-.656zM31.5 21.656a1.312 1.312 0 110-2.624 1.312 1.312 0 010 2.624z" fill="#00A79D"/><path d="M35.225 25.594h-1.507a8.02 8.02 0 00-2.731 4.712 8.445 8.445 0 013.535-.775h5.51v-6.104a6.405 6.405 0 01-4.807 2.167zm-4.381 6.272v1.714c0 .402.025.802.061 1.201h9.126v-3.937h-5.509a7.129 7.129 0 00-3.678 1.022zm1.698 8.165h7.49v-3.937H31.09a13.151 13.151 0 001.451 3.937z" fill="#00A79D"/></svg>