<svg width="19" height="20" fill="none" xmlns="http://www.w3.org/2000/svg"><path d="M17.781 15.897a8.914 8.914 0 00-4.745-4.69c-.01-.005-.019-.007-.028-.012a5.78 5.78 0 002.438-4.71c0-3.212-2.633-5.813-5.881-5.813-3.249 0-5.881 2.601-5.881 5.812 0 1.939.96 3.657 2.438 4.714l-.029.011A8.836 8.836 0 003.26 13.1a8.799 8.799 0 00-1.91 2.8 8.626 8.626 0 00-.7 3.237.185.185 0 00.116.177c.023.01.048.015.073.015h1.423a.188.188 0 00.19-.183 6.949 6.949 0 012.082-4.788 7.11 7.11 0 015.032-2.06 7.11 7.11 0 015.032 2.06 6.949 6.949 0 012.082 4.788.187.187 0 00.19.183h1.422a.192.192 0 00.136-.056.186.186 0 00.054-.136 8.648 8.648 0 00-.7-3.24zm-8.216-5.381A4.076 4.076 0 016.68 9.334a3.982 3.982 0 01-1.195-2.85c0-1.075.425-2.088 1.195-2.85a4.077 4.077 0 012.884-1.18c1.088 0 2.113.419 2.883 1.18a3.982 3.982 0 011.195 2.85 3.982 3.982 0 01-1.195 2.85 4.076 4.076 0 01-2.883 1.182z" fill="#00A79D"/></svg>