<svg width="562" height="752" fill="none" xmlns="http://www.w3.org/2000/svg"><g clip-path="url(#clip0)"><path d="M496.477 693.156l-178.934.593c-47.471-14.269-86.364-63.829-86.61-138.134a210.482 210.482 0 012.528-33.433l144.123-32.391 111.181-24.985a221.108 221.108 0 0122.839 23.755l-106.316 56.157-50.153 26.494 56.357-19.45 116.974-40.369a283.71 283.71 0 0119.45 34.885l-35.293 36.489 39.925-26.147c.171.4.341.801.51 1.203 25.303 60.092-6.092 135.166-56.581 135.333zm-29.406-245.168c-27.059 7.774-60.327 17.597-94.531 27.806-49.455 14.765-100.866 30.348-138.294 41.738l.024-.134a51.476 51.476 0 019.493-22.041c27.726-36.062 63.03-61.254 102.323-70.609h.003a147.402 147.402 0 0133.725-4.026c31.261-.103 60.872 9.705 87.257 27.266z" fill="#F2F2F2"/><path d="M286.317 710.034c98.299 0 177.985-5.944 177.985-13.276s-79.686-13.276-177.985-13.276-177.985 5.944-177.985 13.276 79.686 13.276 177.985 13.276z" fill="#3F3D56"/><path d="M259.775 476.743c0 95.928-57.007 129.422-127.328 129.422-70.322 0-127.329-33.494-127.329-129.422S132.447 258.78 132.447 258.78s127.328 122.035 127.328 217.963z" fill="#F2F2F2"/><path d="M127.809 591.491l1.303-80.283 54.271-99.321-54.066 86.728.586-36.099 37.403-71.858-37.248 62.305v.001l1.054-64.925 40.052-57.208-39.886 46.998.659-119.049-4.14 157.6.34-6.502-40.72-62.353 40.067 74.834-3.794 72.51-.113-1.925-46.945-65.618 46.803 72.417-.475 9.068-.085.136.039.745-9.626 183.963h12.861l1.543-95.021 46.688-72.238-46.571 65.095z" fill="#3F3D56"/><path d="M411.755 164.635v506.192a22.76 22.76 0 01-6.668 16.073 22.745 22.745 0 01-16.072 6.659H183.59a22.71 22.71 0 01-16.086-6.645 22.718 22.718 0 01-6.654-16.087V164.635a22.752 22.752 0 0114.038-21.017 22.717 22.717 0 018.702-1.731h30.742v3.943a18.734 18.734 0 005.481 13.245 18.724 18.724 0 0013.238 5.49h104.481a18.575 18.575 0 0011.101-3.655 17.426 17.426 0 001.842-1.546 18.681 18.681 0 005.777-13.534v-3.943h32.763a22.735 22.735 0 0116.082 6.66 22.76 22.76 0 016.658 16.088z" fill="#3F3D56"/><path d="M276.957 340.084c.007 14.126-8.386 19.062-18.741 19.067a30.136 30.136 0 01-2.142-.072c-9.346-.658-16.61-5.839-16.616-18.977-.007-13.595 17.354-30.761 18.656-32.03l.003-.001.075-.073s18.758 17.961 18.765 32.086z" fill="#00A79D"/><path d="M257.533 356.991l6.853-9.588-6.87 10.64-.018 1.101c-.48-.011-.954-.032-1.424-.065l.732-14.133-.006-.109.012-.021.07-1.335-6.897-10.66 6.917 9.659.018.284.553-10.678-5.906-11.016 5.977 9.139.571-22.137.002-.074v.073l-.088 17.457 5.869-6.923-5.894 8.427-.151 9.561 5.482-9.178-5.503 10.583-.084 5.317 7.955-12.776-7.985 14.63-.185 11.822z" fill="#3F3D56"/><path d="M375.295 520.398H197.31v58.798l14.901-14.906h163.084v-43.892z" fill="#00A79D"/><path d="M337.148 531.056h-100.13v8.121h100.13v-8.121zm0 12.182h-100.13v8.122h100.13v-8.122z" fill="#fff"/><path d="M197.31 440.354h177.985v58.798l-14.901-14.906H197.31v-43.892z" fill="#00A79D"/><path d="M327.78 451.793H227.65v8.122h100.13v-8.122zm0 12.182H227.65v8.121h100.13v-8.121z" fill="#fff"/><path d="M190.284 256.249V399.62h192.037V256.249H190.284zm24.746 1.805a3.1 3.1 0 012.858 1.91 3.1 3.1 0 01-.671 3.372 3.09 3.09 0 01-4.759-.469 3.091 3.091 0 01.385-3.907 3.087 3.087 0 012.187-.906zm-18.559 6.189a3.095 3.095 0 112.572-4.814 3.094 3.094 0 01-2.572 4.814zm6.186-3.095a3.094 3.094 0 116.188-.001 3.094 3.094 0 01-6.188.001zm106.458 98.245H205.75v-76.842h103.365v76.842z" fill="#F2F2F2"/><path d="M378.197 258.828h-6.187v.774h6.187v-.774zm0 2.32h-6.187v.774h6.187v-.774zm0 2.321h-6.187v.773h6.187v-.773zm-6.187 17.793h-46.656v2.32h46.656v-2.32zm0 7.993h-46.656v2.321h46.656v-2.321zm0 7.994h-46.656v2.321h46.656v-2.321zm0 7.993h-46.656v2.321h46.656v-2.321zm0 7.994h-46.656v2.321h46.656v-2.321zm0 7.993h-46.656v2.321h46.656v-2.321zm0 7.995h-46.656v2.32h46.656v-2.32zm0 7.993h-46.656v2.321h46.656v-2.321zm0 7.994h-46.656v2.321h46.656v-2.321zm0 7.993h-46.656v2.321h46.656v-2.321zm-160.074 14.699a3.095 3.095 0 10-.001-6.19 3.095 3.095 0 00.001 6.19zm10.569 0a3.095 3.095 0 10-.001-6.19 3.095 3.095 0 00.001 6.19zm10.569 0a3.094 3.094 0 10-.003-6.189 3.094 3.094 0 00.003 6.189z" fill="#fff"/><path d="M372.01 380.022h-46.656v13.151h46.656v-13.151z" fill="#00A79D"/><path d="M118.238 560.085l-1.71 59.881-18.243 70.146s3.99 11.977 1.14 14.828c-2.85 2.852-15.963 7.984-15.963 7.984l10.832-149.417 23.944-3.422z" fill="#2F2E41"/><path d="M78.631 704.647s-6.506 14.318 2.602 15.62c9.108 1.301 51.178 4.772 48.576-2.604-2.602-7.375-34.263-14.317-34.263-14.317l-16.915 1.301z" fill="#2F2E41"/><path d="M54.388 507.047s6.84 37.069 11.402 43.342c4.56 6.274-2.28 51.897-2.28 51.897s-10.262 65.584-5.702 75.85c4.561 10.265 3.42 6.843 2.85 12.546-.57 5.703-1.71 10.266 0 15.398 1.711 5.133 1.711 4.563 2.281 7.414.57 2.852 0 18.25 0 18.25s24.514 8.554 28.505-3.992c0 0-5.701-7.985-3.991-14.258a75.979 75.979 0 002.85-19.39v-11.976l26.225-98.091 6.271-35.359s-1.711-35.928-7.982-39.35c-6.271-3.422-60.43-2.281-60.43-2.281z" fill="#2F2E41"/><path d="M64.65 728.893s-8.552 18.819 3.42 20.53c11.972 1.711 67.271 6.273 63.85-3.422-3.42-9.695-45.037-18.819-45.037-18.819l-22.234 1.711z" fill="#2F2E41"/><path d="M75.487 342.826c12.594 0 22.803-10.213 22.803-22.812 0-12.599-10.21-22.812-22.803-22.812-12.594 0-22.804 10.213-22.804 22.812 0 12.599 10.21 22.812 22.804 22.812z" fill="#F7C4A7"/><path d="M59.463 330.094l.424 29.132 27.958.095s-7.095-22.806-3.917-27.574c3.178-4.769-24.465-1.653-24.465-1.653z" fill="#F7C4A7"/><path d="M101.135 375.309s-19.953-25.664-35.345-14.828c-15.393 10.836-21.094 36.499-21.094 36.499l3.42 71.857s8.552 10.266 3.421 17.109c-5.13 6.844-7.98 5.133-3.99 10.266 3.99 5.132 8.551 9.124 6.84 10.835-1.71 1.711 1.711 2.852 1.711 2.852l60.43 1.711s-1.71-2.282 3.42-9.125c5.131-6.844-1.14-15.968 0-19.39 1.141-3.422 2.281.57 2.851-7.414.57-7.984-21.664-100.372-21.664-100.372z" fill="#3F3D56"/><path d="M95.434 522.445s1.14 14.257 9.692 16.539c3.206.855 5.611-.776 7.365-3.148a14.009 14.009 0 00.448-15.713l-2.112-3.381-15.393 5.703z" fill="#F7C4A7"/><path d="M42.7 346.508s-.57 11.406 0 13.117c.57 1.711 1.14 3.422 0 5.133-1.14 1.711-.57 7.414.57 7.984 1.141.57-2.28 5.703-1.14 9.125 1.14 3.422 2.281 4.562 2.851 5.703.57 1.14 1.489 3.184 1.489 3.184s16.754-35.691 30.436-27.137c13.682 8.555 24.514 11.406 24.514 11.406s-7.411-39.92-58.72-28.515z" fill="#3F3D56"/><path d="M67.5 373.027s-18.243 1.711-17.103 25.663c1.14 23.953-1.71 61.592-1.71 61.592s31.355 47.905 36.485 51.327c5.131 3.422 5.701 2.852 5.131 5.703-.57 2.852-1.14 5.133 1.14 7.414a19.681 19.681 0 004.561 3.422s18.243-6.274 16.533-11.977c-1.711-5.702-9.692-14.827-9.692-14.827s-13.682-22.242-14.252-25.664c-.57-3.421-.57-2.851-2.28-4.562-1.71-1.711-6.272-8.554-6.272-11.976v-10.836l4.78-57.906a16.788 16.788 0 00-4.45-13c-2.713-2.84-6.814-5.1-12.871-4.373z" fill="#3F3D56"/><path d="M90.193 302.422a9.29 9.29 0 008.61-1.972c2.229-2.119 2.978-5.789 1.392-8.423-1.369-2.275-4.032-3.388-6.566-4.179a58.099 58.099 0 00-17.266-2.634c-2.79-.001-5.706.237-8.094 1.682-1.182.715-2.183 1.697-3.352 2.433-2.148 1.355-4.728 1.805-7.087 2.746a18.18 18.18 0 00-10.362 10.976 21.922 21.922 0 00-1.007 5.156 28.26 28.26 0 002.464 14.003c3.181 6.938 9.235 12.773 10.09 20.358 3.26-2.737 4.215-7.328 6.74-10.755a13.94 13.94 0 017.61-5.166 4.43 4.43 0 002.303-1.031 3.82 3.82 0 00.721-2.077l1.565-11.27c.319-2.293.749-4.8 2.508-6.304a8.91 8.91 0 013.736-1.622 60.14 60.14 0 019.752-1.591" fill="#2F2E41"/><path opacity=".1" d="M51.46 468.43l32.002 41.545S53.994 485.333 51.46 468.43zm30.717-45.999l-.303 39.236 18.588 27.891-15.208-31.271-3.077-35.856z" fill="#000"/><path d="M428.058 682.486l-3.704-2.753s-2.451 13.701.284 15.753c2.736 2.053 12.996 5.474 12.996 9.579s23.255 9.579 23.939 3.421c.683-6.158-2.052-9.579-2.052-9.579s-10.944-10.947-12.312-13c-1.368-2.052-4.788-6.158-4.788-6.158l-14.363 2.737z" fill="#2F2E41"/><path d="M482.775 512.118s-.102.602-.28 1.704c-.164.978-.39 2.36-.664 4.064-2.872 17.536-11.251 69.16-10.683 70.864.684 2.052 5.472 9.579 0 11.631a4.247 4.247 0 00-1.703 1.854 39.733 39.733 0 00-2.893 6.829c-3.263 9.469-6.751 24.625-8.769 35.12-.882 4.612-1.484 8.32-1.662 10.263-.062.45-.069.904-.02 1.355.684 2.737-4.104 12.316-6.156 15.053-2.052 2.737-5.472 5.474-4.788 8.21.684 2.737-17.099 10.264-19.151 5.474-2.052-4.789-2.052-7.526-2.736-8.895-.684-1.368-1.368-10.947 2.052-12.315 3.42-1.369 1.368-25.316 4.788-30.106 1.142-1.594 2.886-6.992 4.713-13.485a444.588 444.588 0 002.154-7.971c2.886-11.133 5.444-22.333 5.444-22.333l-.684-80.053 37.618-4.789.965 2.128 1.922 4.221.533 1.177zm2.052 131.368s5.472-5.473 8.208 0c2.736 5.474 5.472 26.685 10.259 31.474 4.788 4.79 10.944 28.737 4.104 30.105-6.839 1.369-14.363-2.052-15.047-6.158-.684-4.105-15.047-25.315-15.047-27.368 0-2.053 9.575-9.579 9.575-9.579l-2.052-18.474z" fill="#2F2E41"/><path d="M400.7 474.487s8.891 80.052 10.943 87.579c2.052 7.526 12.995 36.263 16.415 41.052 3.42 4.79 25.307 43.79 28.043 45.842 2.736 2.053 8.207 7.527 8.207 7.527s10.26 10.263 11.628 12.315c1.368 2.053 12.995-4.105 13.679-8.21.684-4.105-.684-10.947-1.368-13.684s1.368-6.842-.684-8.895-12.311-12.316-12.311-17.105c0-4.79-17.783-32.842-24.623-39-6.84-6.158-5.472-16.421-5.472-16.421V523.75l37.618-11.632s-2.052-32.842-6.839-32.842c-4.788 0-67.713-10.947-75.236-4.789z" fill="#2F2E41"/><path d="M456.101 360.223c12.466 0 22.571-10.109 22.571-22.579s-10.105-22.579-22.571-22.579c-12.465 0-22.571 10.109-22.571 22.579s10.106 22.579 22.571 22.579z" fill="#F7C4A7"/><path d="M448.577 355.434s-2.736 10.263-6.156 13c-3.419 2.737 8.892 14.368 8.892 14.368l23.255 1.369 4.104-13s-7.524-15.053-5.472-24.632c2.052-9.579-24.623 8.895-24.623 8.895z" fill="#F7C4A7"/><path d="M439.002 367.065s6.156.685 7.524 2.737c1.367 2.053 10.943 8.211 18.467 6.842 7.523-1.368 12.311-3.421 13.679-2.736 1.368.684 4.104 15.052 4.104 15.052l-7.524 21.895 1.368 60.21 2.052 16.421s4.104-5.473-12.312-2.052c-16.415 3.421-37.617-2.737-44.457-3.421-6.84-.685-18.467-2.737-19.151-6.842-.684-4.106 2.052-19.158 2.052-19.158l10.943-45.842 6.84-24.632 16.415-18.474z" fill="#3F3D56"/><path d="M445.471 363.977s-5.785-3.069-7.837-.333c-2.052 2.737-28.043 6.843-28.043 8.895 0 2.053-5.471 57.474-4.103 62.263 1.367 4.79-2.736 10.264-2.736 10.264l-4.788 20.526s-12.995 39-7.524 40.368c5.472 1.369 10.26 0 12.312 0 2.052 0 1.368-26 6.839-32.842 5.472-6.842 12.996-23.947 14.364-27.368 1.367-3.421 18.467-50.632 17.783-56.106-.684-5.473 3.733-25.667 3.733-25.667zm28.413 3.088s5.472 0 6.156 1.369c.684 1.368 7.523 10.263 10.259 12.316 2.736 2.052 12.312 10.947 12.312 13 0 2.052-19.835 17.105-19.835 17.105s-8.208 40.368-4.104 54.052c4.104 13.685 10.259 46.527 7.523 48.579-2.736 2.053-8.891 2.737-8.891 0 0-2.736-4.104-32.157-7.524-38.315-3.42-6.158-13.679-45.158-9.575-56.106 4.104-10.947 13.679-52 13.679-52z" fill="#D0CDE1"/><path d="M383.601 434.802s-.684 21.21 6.839 32.158a130.066 130.066 0 0112.312 23.263s12.311-3.421 14.363-7.526c2.052-4.106 15.047-.685 15.047-2.053 0-1.369-15.731-8.211-17.099-9.579-1.368-1.368-6.156-1.368-8.892-4.105-2.735-2.737-3.419-8.895-3.419-8.895l-2.736-17.79-16.415-5.473z" fill="#F7C4A7"/><path d="M440.555 323.722a13.002 13.002 0 01-5.062-1.159c-3.438-1.855-4.35-7.138-1.732-10.039a12.98 12.98 0 012.404-1.934l5.199-3.54c2.3-1.566 4.654-3.157 7.335-3.895a22.89 22.89 0 017.499-.443 50.665 50.665 0 0114.364 2.613c4.585 1.683 8.861 4.5 11.638 8.519 4.402 6.372 4.462 14.965 2.038 22.32-2.424 7.356-7.03 13.761-11.568 20.037l-2.354-11.493c-.21-1.024-.481-2.146-1.332-2.751-2.116-1.506-4.703 1.586-7.299 1.565-1.668-.012-3.069-1.385-3.701-2.929a16.7 16.7 0 01-.82-4.917c-.31-3.521-1.54-8.42-4.873-10.361-3.106-1.81-8.245-1.275-11.736-1.593z" fill="#2F2E41"/><path opacity=".1" d="M441.821 512.67s2.31 66.843 3.678 68.895c1.368 2.053 0-69.105 0-69.105l-3.678.21z" fill="#000"/><path d="M415.063 372.539h-5.471s-23.255 31.474-20.519 33.526c2.736 2.053 0 7.527 0 7.527l-5.472 10.263s-6.84 6.158-4.788 7.526c2.052 1.369 4.788 6.842 4.788 6.842s13.679-2.052 17.783 6.158l8.871-11.203 4.808-60.639z" fill="#D0CDE1"/><path d="M477.304 431.381s-15.048.685-32.147-10.263l-17.099-7.526s-15.047-23.263-16.415-19.158c-1.368 4.105 2.052 12.316 2.052 12.316s-22.408 4.271-21.172 10.816c.255 1.348 11.596-1.921 11.596-1.921s-2.051 13 9.576 13.684c11.627.684 15.047-2.053 15.047-2.053s49.246 41.053 57.453 28.053c8.208-13-8.891-23.948-8.891-23.948z" fill="#F7C4A7"/><path d="M495.087 391.013l7.523 2.737v20.526l2.736 4.105s-.684 8.211-2.736 10.263c-2.052 2.053-6.155 1.369-4.787 6.158a25.927 25.927 0 01.683 9.579s-12.311 15.737-12.995 13.684c-.684-2.052-10.259-27.368-11.627-27.368-1.368 0 13.679-39.684 13.679-39.684h7.524z" fill="#D0CDE1"/><path d="M405.145 494.67s-7.072-6.842-3.536-7.184c3.536-.342 15.848-7.184 17.899-3.763 2.052 3.421-14.363 10.947-14.363 10.947z" fill="#2F2E41"/><path d="M169.591 676.541c0 17.546-10.427 23.673-23.29 23.673a37.967 37.967 0 01-2.662-.091c-11.608-.822-20.627-7.264-20.627-23.582 0-16.887 21.572-38.196 23.193-39.774l.003-.002.093-.091s23.29 22.321 23.29 39.867z" fill="#00A79D"/><path d="M145.453 697.529l8.518-11.907-8.54 13.214-.022 1.367a37.967 37.967 0 01-1.77-.081l.918-17.555-.007-.136.016-.025.086-1.658-8.56-13.247 8.587 12.003.02.352.694-13.263-7.329-13.688 7.419 11.36.722-27.498.003-.094v.091l-.121 21.684 7.296-8.597-7.326 10.465-.193 11.875 6.813-11.397-6.841 13.144-.108 6.602 9.89-15.862-9.927 18.166-.238 14.685z" fill="#3F3D56"/></g><g clip-path="url(#clip1)"><path d="M22.142 70.233a7.632 7.632 0 007.634-7.63 7.632 7.632 0 00-7.634-7.63 7.632 7.632 0 00-7.634 7.63 7.632 7.632 0 007.634 7.63zm22.902 0a7.632 7.632 0 007.634-7.63 7.632 7.632 0 00-7.634-7.63 7.632 7.632 0 00-7.634 7.63 7.632 7.632 0 007.634 7.63zm22.901 0a7.632 7.632 0 007.634-7.63 7.632 7.632 0 00-7.634-7.63 7.632 7.632 0 00-7.633 7.63 7.632 7.632 0 007.633 7.63zm22.902 0a7.632 7.632 0 007.634-7.63 7.632 7.632 0 00-7.634-7.63 7.632 7.632 0 00-7.634 7.63 7.632 7.632 0 007.634 7.63zm22.902 0a7.632 7.632 0 007.634-7.63 7.632 7.632 0 00-7.634-7.63 7.632 7.632 0 00-7.634 7.63 7.632 7.632 0 007.634 7.63zm22.901 0a7.632 7.632 0 007.634-7.63 7.632 7.632 0 00-7.634-7.63 7.631 7.631 0 100 15.26zm22.902 0a7.632 7.632 0 007.634-7.63 7.632 7.632 0 00-7.634-7.63 7.632 7.632 0 00-7.634 7.63 7.632 7.632 0 007.634 7.63z" fill="#E6E6E6"/><path d="M177.192 71.895H4.502a3.111 3.111 0 01-3.107-3.105V56.417a3.108 3.108 0 013.107-3.105h172.69a3.113 3.113 0 013.107 3.105V68.79a3.11 3.11 0 01-3.107 3.105zM4.502 54.554a1.866 1.866 0 00-1.864 1.863V68.79a1.864 1.864 0 001.864 1.863h172.69a1.869 1.869 0 001.864-1.863V56.417a1.864 1.864 0 00-1.864-1.863H4.502zM41.459 2.403a1.788 1.788 0 011.785 1.784v38.661a1.785 1.785 0 01-1.785 1.784H3.569a1.788 1.788 0 01-1.784-1.784V4.188A1.786 1.786 0 013.57 2.402h37.889zm0-1.784H3.569A3.57 3.57 0 000 4.187v38.661a3.568 3.568 0 003.57 3.568h37.889a3.57 3.57 0 003.57-3.568V4.188a3.567 3.567 0 00-3.57-3.569z" fill="#E6E6E6"/><path d="M35.549 12.565h-25.28a.891.891 0 110-1.784h25.28a.891.891 0 110 1.784zm0 6.318h-25.28a.893.893 0 01-.343-1.718.893.893 0 01.344-.066h25.279a.893.893 0 110 1.784zm0 6.317h-25.28a.893.893 0 01-.343-1.719.891.891 0 01.344-.066h25.279a.891.891 0 110 1.784zm0 6.317h-25.28a.893.893 0 01-.343-1.718.893.893 0 01.344-.067h25.279a.893.893 0 110 1.785zm.001 6.317H10.27a.893.893 0 110-1.784h25.28a.893.893 0 010 1.784z" fill="#00A79D"/><path d="M170.866 2.403a1.785 1.785 0 011.785 1.784v38.661a1.786 1.786 0 01-1.785 1.784h-37.889a1.786 1.786 0 01-1.785-1.784V4.188a1.787 1.787 0 011.785-1.785h37.889zm0-1.784h-37.889a3.569 3.569 0 00-3.57 3.568v38.661a3.566 3.566 0 003.57 3.568h37.889a3.569 3.569 0 003.57-3.568V4.188a3.566 3.566 0 00-3.57-3.569z" fill="#E6E6E6"/><path d="M164.956 12.565h-25.279a.886.886 0 01-.635-.259.896.896 0 01-.195-.975.896.896 0 01.83-.55h25.279a.89.89 0 01.887.892.89.89 0 01-.887.892zm0 6.318h-25.279a.888.888 0 01-.635-.26.896.896 0 01-.195-.975.897.897 0 01.83-.55h25.279a.891.891 0 010 1.785zm0 6.317h-25.279a.888.888 0 01-.635-.26.896.896 0 01-.195-.976.897.897 0 01.83-.549h25.279a.89.89 0 01.627 1.52.89.89 0 01-.627.264zm0 6.317h-25.279a.888.888 0 01-.635-.26.896.896 0 01-.195-.975.896.896 0 01.83-.55h25.279a.891.891 0 010 1.785zm0 6.317h-25.279a.891.891 0 110-1.784h25.279a.891.891 0 110 1.784zM299.644 76.74a1.788 1.788 0 011.785 1.783v38.661a1.785 1.785 0 01-1.785 1.784h-37.889a1.787 1.787 0 01-1.784-1.784v-38.66a1.782 1.782 0 011.784-1.785h37.889zm0-1.785h-37.889a3.569 3.569 0 00-3.569 3.568v38.661a3.567 3.567 0 003.569 3.568h37.889a3.567 3.567 0 003.57-3.568v-38.66a3.569 3.569 0 00-3.57-3.569z" fill="#00A79D"/><path d="M293.735 86.901h-25.279a.896.896 0 01-.83-.55.895.895 0 01.486-1.168.896.896 0 01.344-.066h25.279a.893.893 0 010 1.784zm0 6.318h-25.28a.895.895 0 01-.892-.892.893.893 0 01.892-.892h25.28a.895.895 0 01.892.892.893.893 0 01-.892.892zm0 6.316h-25.279a.888.888 0 01-.829-.55.894.894 0 01.829-1.234h25.279a.892.892 0 010 1.784zm0 6.317h-25.279a.881.881 0 01-.635-.259.893.893 0 01.635-1.525h25.279a.892.892 0 010 1.784zm0 6.317h-25.279a.9.9 0 01-.635-.259.897.897 0 01-.195-.976.904.904 0 01.486-.483.9.9 0 01.344-.066h25.279a.89.89 0 010 1.784z" fill="#00A79D"/><path d="M106.658 46.417H67.777a3.972 3.972 0 01-3.966-3.964V14.644a3.968 3.968 0 013.966-3.964h38.881a3.969 3.969 0 013.966 3.964v27.809a3.969 3.969 0 01-3.966 3.964zM67.777 12.464a2.185 2.185 0 00-2.181 2.18v27.809a2.182 2.182 0 002.181 2.18h38.881a2.186 2.186 0 002.181-2.18V14.644a2.179 2.179 0 00-2.181-2.18H67.777z" fill="#E6E6E6"/><path d="M99.858 23.123h-25.28a.893.893 0 010-1.784h25.28a.894.894 0 01.898.892.896.896 0 01-.898.892zm0 6.317h-25.28a.892.892 0 010-1.784h25.28a.893.893 0 110 1.784zm0 6.317h-25.28a.892.892 0 010-1.784h25.28a.894.894 0 01.898.892.895.895 0 01-.898.892z" fill="#00A79D"/><path d="M235.671 61.825l-37.342-10.824a3.969 3.969 0 01-2.704-4.911l7.749-26.708a3.97 3.97 0 014.913-2.704l37.343 10.825a3.971 3.971 0 012.704 4.911l-7.749 26.709a3.968 3.968 0 01-4.914 2.703zM207.79 18.392a2.186 2.186 0 00-2.702 1.487l-7.749 26.708a2.183 2.183 0 001.487 2.701l37.343 10.824a2.182 2.182 0 002.702-1.486l7.749-26.708a2.18 2.18 0 00-1.487-2.702L207.79 18.392z" fill="#E6E6E6"/><path d="M235.631 37.561l-24.279-7.037a.893.893 0 01.497-1.714l24.279 7.038a.893.893 0 01-.497 1.713zm-1.76 6.067l-24.279-7.037a.884.884 0 01-.534-.427.903.903 0 01-.075-.679.902.902 0 01.427-.533.893.893 0 01.679-.075l24.279 7.038a.893.893 0 01-.497 1.713zm-1.761 6.067l-24.279-7.038a.893.893 0 01.497-1.713l24.279 7.038a.89.89 0 01.609 1.105.894.894 0 01-1.106.608z" fill="#00A79D"/><path d="M175.224 148.399a1.228 1.228 0 10.001-2.457 1.228 1.228 0 00-.001 2.457zm4.666 0a1.228 1.228 0 10.001-2.457 1.228 1.228 0 00-.001 2.457zm4.665 0a1.228 1.228 0 10.001-2.457 1.228 1.228 0 00-.001 2.457z" fill="#fff"/></g><defs><clipPath id="clip0"><path fill="#fff" transform="translate(5.118 141.887)" d="M0 0h556.882v610.113H0z"/></clipPath><clipPath id="clip1"><path fill="#fff" transform="translate(0 .62)" d="M0 0h479.082v341.909H0z"/></clipPath></defs></svg>