<svg width="24" height="24" fill="none" xmlns="http://www.w3.org/2000/svg"><g clip-path="url(#clip0)"><path d="M12.286 3.2C1.054 3.2.857 4.2.857 12c0 7.801.197 8.8 11.429 8.8 11.232 0 11.428-.999 11.428-8.8 0-7.801-.196-8.8-11.428-8.8zm3.663 9.182l-5.132 2.395c-.449.208-.817-.025-.817-.52V9.743c0-.495.368-.729.817-.52l5.132 2.394c.449.21.449.554 0 .764z" fill="#2C2C2C"/></g><defs><clipPath id="clip0"><path fill="#fff" transform="translate(.857 .571)" d="M0 0h22.857v22.857H0z"/></clipPath></defs></svg>